<?xml version="1.0" encoding="utf-8"?>
<!-- Generator: Adobe Illustrator 22.1.0, SVG Export Plug-In . SVG Version: 6.00 Build 0)  -->
<svg version="1.1" id="Layer_1" xmlns="http://www.w3.org/2000/svg" xmlns:xlink="http://www.w3.org/1999/xlink" x="0px" y="0px"
	 viewBox="0 0 512 512" style="enable-background:new 0 0 512 512;" xml:space="preserve">
<style type="text/css">
	.st0{fill:#F7E613;}
	.st1{fill:#A42274;}
	.st2{fill:#FFFFFF;}
</style>
<circle class="st1" cx="256" cy="256" r="230.3"/>
<g id="JHx5YT.tif_1_">
	<g>
		<path class="st2" d="M272.3,86.8c7.8,1.6,15.7,2.9,23.4,4.7c69.7,16.2,122.5,74.8,131.3,145.6c0.9,7,1.1,14,1.7,21.5
			c-10.3,0-19.8,0-28.9,0c-1.9-11.6-2.9-23.1-5.7-34.3c-16.5-66.1-77.8-111.1-145.8-107.4c-79.6,4.4-140.5,73.9-134.3,153.3
			c5.6,71.6,64.1,127.8,136.5,131c4.8,0.2,6,1.6,5.9,6.1c-0.3,7.8-0.1,15.7-0.1,23.9c-15.7,0.3-30.3-1.9-44.8-5.7
			C143.7,407.7,92.6,348.5,84.8,279c-0.4-3.5-1-6.9-1.5-10.3c0-6.3,0-12.6,0-18.9c0.8-5,1.6-10,2.3-14.9
			c10-70.2,62-127.2,130.7-143.2c7.9-1.9,16-3.2,24-4.8C251,86.8,261.6,86.8,272.3,86.8z"/>
		<path class="st2" d="M134.6,259.3c9.8,0,19.2,0,29.2,0c1.5,33.7,15.8,60.4,44.6,78.4c19.1,11.9,40,15.7,62.2,12.4
			c43.5-6.5,76.6-45.4,77.6-89.4c0.9-43.9-33.5-92-91.9-94.1c0-9.3,0-18.7,0-28c26.5-7.9,78.2,19,100.8,52.3
			c29.7,43.9,27.7,102.7-5,143.7c-33.9,42.6-90.2,57.9-140.7,38.1C160.8,352.7,133.4,303.2,134.6,259.3z"/>
		<path class="st2" d="M298.5,259.3c9.8,0,19.2,0,28.5,0c3.6,21.5-13.6,50.8-36.9,63.1c-28,14.8-61.6,10-84-11.8
			c-22.2-21.7-27.9-55-14.7-82.5c12.1-25.2,39.8-41.8,64.9-40.1c0,8.7,0.2,17.5-0.2,26.3c-0.1,1.2-3.1,3-4.9,3.2
			c-18.1,2.4-32.4,15.6-36.1,34c-3.5,17.1,5,35.2,20.5,44c25.3,14.4,57.3-1.1,61.8-29.9C297.7,263.7,298.1,261.8,298.5,259.3z"/>
	</g>
</g>
</svg>
